<?xml version="1.0" encoding="UTF-8"?>
<!DOCTYPE svg PUBLIC "-//W3C//DTD SVG 1.1//EN" "http://www.w3.org/Graphics/SVG/1.1/DTD/svg11.dtd">
<!-- Creator: CorelDRAW X7 -->
<svg xmlns="http://www.w3.org/2000/svg" xml:space="preserve" width="2906px" height="2906px" version="1.1" style="shape-rendering:geometricPrecision; text-rendering:geometricPrecision; image-rendering:optimizeQuality; fill-rule:evenodd; clip-rule:evenodd"
viewBox="0 0 29060 29060"
 xmlns:xlink="http://www.w3.org/1999/xlink">
 <defs>
  <style type="text/css">
   <![CDATA[
    .fil0 {fill:#FEFEFE}
    .fil1 {fill:#FF3D00}
    .fil2 {fill:#1691CE;fill-rule:nonzero}
   ]]>
  </style>
 </defs>
 <g id="Layer_x0020_1">
  <metadata id="CorelCorpID_0Corel-Layer"/>
  <circle class="fil0" cx="14530" cy="14530" r="14079"/>
  <g id="_1314498848">
   <g id="_1075140928">
    <path class="fil1" d="M20050 19855c0,0 0,0 0,0 0,0 0,0 0,0zm-10341 -8547c3,27 5,53 5,81 0,375 -304,679 -679,679 -375,0 -680,-304 -680,-679 0,-28 3,-55 6,-81 -257,92 -582,268 -652,550 473,293 913,402 1386,438 475,0 987,-110 1535,-292 36,-36 36,-73 73,-109 0,0 0,0 0,0 -289,-288 -628,-480 -994,-587zm14497 -5515l-30 41c-402,548 -767,1095 -1095,1680 -5407,-1408 -11070,-1311 -16542,-329 -291,-401 -620,-803 -948,-1241 -126,-172 -258,-345 -393,-519 -38,40 -76,78 -114,118 134,173 267,343 397,511 621,838 1205,1605 1680,2299 98,560 195,1120 293,1680 -75,693 -147,1350 -183,1971 -183,1825 -292,3213 -767,3578 73,-145 110,-292 145,-438 0,-109 0,-255 -35,-365 -404,-604 -1245,-164 -1498,402 -73,183 -110,328 -110,511 37,183 74,328 147,475 146,255 438,475 949,511 512,37 912,-219 1169,-621 183,-255 328,-583 438,-948 -37,255 -37,510 -37,766 -37,949 -37,1935 -365,2665 0,-37 0,-73 0,-110 -37,-255 -146,-510 -328,-730 -147,-218 -365,-401 -585,-510 -183,-75 -365,-110 -548,-75 -328,37 -693,147 -950,403 -255,219 -400,620 -365,1205 0,510 220,875 512,1132 219,183 511,328 803,401 -620,220 -1241,438 -1825,730 -213,102 -423,206 -630,313 871,1440 2008,2686 3346,3683 -84,-1498 -257,-3061 -526,-4689 1011,-390 2021,-780 3031,-1168 36,36 36,73 73,73 579,2680 903,5233 973,7657 54,18 106,36 158,53 -7,-341 -19,-683 -36,-1028l1911 1496c589,101 1183,162 1777,182l0 -72c0,0 0,0 0,0 1594,-913 3189,-1826 4783,-2739l0 2070c359,-128 712,-270 1059,-428l0 -2262c1218,-695 2434,-1388 3651,-2081 0,0 0,0 0,0l0 1858c50,-48 98,-94 146,-142l0 -6354c0,0 37,0 37,-36 0,0 0,0 0,0 182,-147 402,-292 585,-439 685,639 1695,1305 2527,1750 16,-52 34,-104 50,-158 -840,-450 -1758,-1027 -2432,-1701 146,-109 309,-243 475,-365 491,-363 210,-2295 -1497,-2190 -280,-1838 -560,-3676 -840,-5514 402,-1023 985,-1936 1643,-2811l26 -35c-35,-39 -69,-78 -105,-116l0 0zm-16899 2597c3331,-429 6366,-651 9712,-475 183,1533 293,3176 328,4966 73,1753 73,3687 73,5769 -510,255 -985,511 -1460,766 -1022,512 -2003,1069 -3030,1497 -288,120 -584,146 -877,146 -292,0 -626,31 -913,-146 -1266,-783 -2080,-2118 -2628,-3614 -585,-1534 -840,-3323 -913,-5331 475,328 986,475 1498,475 400,0 875,-74 1350,-220 -147,146 -292,328 -438,475 0,0 0,0 0,0 -219,183 -512,475 -986,840 402,-146 767,-439 1095,-730 0,0 0,0 0,0 219,-219 402,-439 585,-657 0,145 -37,255 -73,400 -37,366 -183,841 -330,1243 -218,693 -437,1350 -291,1715 146,293 438,403 731,511 145,74 328,147 473,257 37,0 37,35 74,72 0,38 36,73 36,146 37,-328 -110,-438 -548,-620 -255,-110 -510,-183 -620,-403 -146,-328 73,-948 292,-1643 146,-400 293,-875 365,-1240 110,-840 146,-1606 -37,-2154 -182,-585 -583,-987 -1313,-1023 -585,-72 -1170,183 -1680,438 0,0 0,0 0,0 -73,37 -146,73 -183,73 -97,-511 -195,-1023 -292,-1533 0,0 0,0 0,0l0 0zm9858 -475c73,37 182,37 255,37 183,1460 293,3139 402,4674 110,2336 146,4417 110,5367 -110,365 -110,730 -37,1022 73,255 183,438 329,583 183,147 366,256 584,256 182,0 402,-36 620,-183 0,0 0,0 0,0 220,-108 257,-401 183,-656 -131,-394 -482,-704 -730,-365 74,-74 182,-74 256,-37 181,91 267,290 328,475 37,182 37,365 -109,475 0,0 0,0 0,0 -219,108 -366,145 -548,145 -183,-37 -328,-110 -475,-219 -109,-109 -218,-291 -291,-511 -74,-255 -74,-585 36,-913 195,-134 389,-267 584,-402 146,-73 401,-36 658,37 652,187 1021,840 948,1498 0,328 -72,583 -218,656 0,12 0,24 0,37 -147,73 -292,145 -439,219 -291,146 -584,256 -876,219 -220,0 -402,-36 -585,-110 -145,-109 -291,-218 -400,-438 -110,-218 -183,-548 -183,-913 0,-2190 0,-4162 -73,-5987 -37,-1790 -147,-3433 -329,-4966 0,0 0,0 0,0l0 0zm402 37c110,36 218,36 365,36 12,134 25,267 36,402 365,2958 767,5951 731,9055 -30,33 -144,118 -182,145 0,0 0,0 0,0 -135,85 -269,172 -402,257 0,-987 -37,-2995 -147,-5221 -73,-1535 -218,-3178 -401,-4674 0,0 0,0 0,0l0 0zm511 73c109,0 255,0 365,37 219,1460 402,2921 547,4417 147,1497 293,2993 403,4491 -183,122 -366,243 -548,365 36,-3066 -365,-6061 -730,-8945 -13,-122 -25,-243 -37,-365 0,0 0,0 0,0zm512 37c182,35 328,35 473,72 293,1789 402,3469 585,5185 73,1058 182,2118 292,3286 -134,97 -267,195 -402,292 -110,-1497 -255,-2958 -401,-4418 -147,-1496 -329,-2957 -547,-4417 0,0 0,0 0,0zm656 72c110,36 219,36 329,73 475,2701 621,4674 766,6207 37,695 74,1315 147,1826 -135,97 -268,195 -402,292 -110,-1132 -218,-2191 -293,-3250 -145,-1679 -291,-3359 -547,-5148 0,0 0,0 0,0zm512 73c110,37 218,37 328,73 547,2263 694,4126 803,5769 37,657 74,1241 147,1826 -135,85 -268,170 -403,255 -35,-475 -109,-1058 -145,-1716 -110,-1533 -292,-3506 -730,-6207 0,0 0,0 0,0zm510 110c110,0 256,36 365,73 293,1241 475,2446 621,3614 110,1205 219,2374 257,3543 -110,85 -220,170 -330,255 -73,-585 -110,-1133 -145,-1753 -110,-1643 -220,-3506 -768,-5732zm548 110c110,0 255,35 402,73 293,1460 511,2738 658,3796 0,0 0,0 0,0 182,1096 255,2008 292,2813 -37,23 -74,48 -110,72 0,0 0,0 0,0 -134,98 -267,195 -402,293 -36,-1170 -110,-2338 -255,-3470 -146,-1204 -328,-2373 -585,-3577 0,0 0,0 0,0zm548 108c182,37 329,74 512,110 182,1168 365,2228 510,3250 147,986 293,1899 438,2774 -23,25 -48,50 -73,73 -145,98 -292,195 -438,293 -37,-803 -109,-1716 -255,-2739 0,0 0,0 0,0 -147,-1095 -365,-2300 -694,-3761zm657 147c183,36 328,73 475,110 280,1836 560,3674 840,5512 -122,98 -244,195 -365,293 -147,-840 -257,-1753 -438,-2739 -147,-985 -292,-2045 -512,-3176 0,0 0,0 0,0zm-9895 1388c183,108 402,145 695,145 292,37 547,-37 803,-110 365,-109 767,-255 1533,-35 402,108 767,328 1132,547 146,109 292,183 438,256 110,60 220,121 328,182 -85,-97 -170,-195 -255,-292 0,0 0,0 0,0 0,0 0,0 0,0 -365,-511 -731,-950 -1533,-1351 -183,-109 -438,-147 -694,-147 -256,0 -547,38 -840,75 -329,72 -657,108 -950,108 -292,0 -583,0 -875,-73 -13,0 -25,0 -37,0 -13,25 -25,50 -36,73 -37,37 -37,110 -37,183 0,74 0,182 73,256 72,73 147,146 255,183 0,0 0,0 0,0l0 0zm220 838c730,-365 1423,-510 2118,-400 693,109 1350,400 2008,875 -475,-657 -1643,-985 -1973,-1022 -676,-77 -1700,51 -2153,547 0,0 0,0 0,0l0 0zm1898 38c-658,-73 -1314,109 -1971,584 -25,24 -50,48 -73,73 23,12 48,25 73,36 328,439 693,804 1131,1095 439,329 913,548 1460,695 -1606,-803 -1751,-1096 -2081,-1425 548,292 1133,402 1681,365 657,-36 1240,-328 1570,-656 35,35 108,73 182,108 -147,-510 -1643,-875 -1972,-875zm-1789 657c366,-255 731,-402 1096,-475 0,0 0,0 0,0 -37,73 -37,110 -37,183 0,365 292,657 657,657 365,0 693,-292 693,-657 0,-37 0,-73 -35,-110 365,73 693,255 1058,438 -292,292 -840,512 -1423,584 -658,37 -1388,-145 -2009,-620 0,0 0,0 0,0 0,0 0,0 0,0l0 0zm0 3322c219,74 366,182 438,329 155,310 -70,548 -402,548 -218,0 -876,-585 -1351,-658 -182,0 -328,37 -365,256 0,24 0,49 0,72 110,75 365,75 585,110 511,73 766,402 1095,365 0,0 0,0 0,0 414,0 801,-296 584,-730 -73,-182 -365,-328 -584,-292 0,0 0,0 0,0zm-4856 -4527c693,-255 1315,-402 1826,-328 547,35 985,291 1278,766 37,72 37,147 37,255 -365,-291 -805,-438 -1278,-511 -257,-37 -1242,37 -1535,366 512,-183 1023,-256 1535,-220 473,74 913,257 1278,548 0,146 0,292 0,439 -220,-183 -440,-330 -695,-439 -700,-371 -2051,-352 -2446,439 0,-37 0,-74 0,-110 0,-402 0,-803 0,-1205 0,0 0,0 0,0l0 0zm10186 9712c110,110 183,183 293,219 -1729,1059 -3457,2118 -5185,3177 -1022,-827 -2045,-1655 -3066,-2483 -37,-147 -74,-292 -74,-438 1047,803 2093,1606 3140,2409 13,13 25,25 37,37 11,-12 24,-24 36,-37 1607,-961 3213,-1923 4819,-2884 0,0 0,0 0,0l0 0zm475 329c147,37 293,72 475,72 328,0 658,-108 950,-255 438,-218 876,-475 1278,-766 0,0 0,0 0,0 0,0 0,0 0,0 255,-147 473,-329 693,-475 12,-12 25,-25 37,-37 0,0 0,0 0,0 0,0 0,0 0,0 255,-182 511,-365 730,-548 0,0 0,0 0,0 0,0 0,0 0,0 36,0 36,-35 36,-35 220,-147 439,-330 622,-475 0,0 0,0 0,0 11,0 23,0 35,0 0,0 0,-37 38,-37 12,-13 23,-25 35,-36 147,-110 257,-220 402,-329 0,962 0,1923 0,2885 -3431,1983 -6864,3967 -10296,5950 -1022,-828 -2045,-1654 -3067,-2482 -110,-840 -219,-1752 -365,-2629 985,804 1972,1607 2958,2410 12,12 24,25 35,37 25,-12 50,-25 74,-37 1776,-1071 3554,-2143 5330,-3213 0,0 0,0 0,0l0 0zm5222 -6025c976,-97 1942,1072 1424,1935 -146,110 -256,183 -365,256 36,-73 36,-220 73,-328 86,-698 -273,-1392 -986,-1571 -146,-37 -329,-72 -474,-72 109,-74 218,-147 328,-220 0,0 0,0 0,0l0 0zm694 2483c-74,36 -147,110 -219,146 37,-110 72,-256 109,-401 0,-789 -215,-1369 -1022,-1570 -183,-37 -330,-37 -511,-37 96,-61 194,-121 291,-183 147,-110 438,-110 767,0 635,181 956,792 876,1425 -33,232 -79,488 -291,620 0,0 0,0 0,0 0,0 0,0 0,0l0 0zm-512 365c-110,110 -219,183 -328,256 36,-110 73,-256 73,-403 79,-793 -236,-1409 -1023,-1606 -145,-37 -328,-37 -475,-37 85,-48 171,-97 256,-145 146,-110 475,-183 840,-110 697,199 958,695 877,1425 0,255 -110,510 -220,620zm-620 511c-110,74 -256,182 -365,292 35,-145 72,-292 72,-475 0,-727 -244,-1448 -1022,-1643 -183,-35 -328,-35 -475,-35 97,-62 195,-123 292,-183 0,0 0,0 0,0 147,-110 475,-147 803,-74 682,195 995,693 914,1425 0,292 -109,547 -219,693zm-658 512c-145,108 -328,218 -475,328 37,-110 74,-255 74,-438 86,-858 -273,-1381 -1059,-1643 -146,-37 -328,-73 -511,-73 158,-97 316,-195 474,-292 147,-110 475,-147 804,-73 704,201 913,816 913,1496 -37,293 -110,585 -220,695 0,0 0,0 0,0zm-766 583c-147,74 -292,183 -439,293 37,-146 74,-293 74,-475 0,-691 -318,-1458 -1059,-1643 -183,-73 -328,-110 -475,-110 122,-73 244,-146 365,-218 147,-110 475,-110 804,-37 696,174 1027,796 949,1497 0,292 -110,583 -219,693 0,0 0,0 0,0zm-731 512c-183,110 -365,218 -548,328 74,-145 74,-328 110,-510 0,-696 -342,-1439 -1058,-1643 -147,-37 -330,-74 -438,-74 145,-109 291,-219 438,-329 0,0 0,0 0,0 145,-72 437,-72 730,38 690,197 985,811 985,1496 -37,329 -109,584 -219,694 0,0 0,0 0,0zm-7740 -2373c0,145 37,438 72,548 -182,0 -328,-73 -510,-110 -402,-110 -803,-220 -1278,-73 -365,-182 -730,-37 -1058,73 -147,37 -366,110 -475,145 35,-108 145,-400 182,-547 -292,547 -329,512 -512,1132 74,-110 147,-220 220,-328 73,0 145,0 255,-37 273,0 1168,-37 1351,145 237,-76 858,-108 1315,-108 182,0 365,0 584,0 73,218 146,401 291,548 -145,-475 -255,-913 -437,-1388l0 0zm-1534 1533c-584,37 -584,-37 -1058,-182 365,255 730,365 1095,328 329,-36 621,-183 949,-401 -218,73 -475,218 -986,255 0,0 0,0 0,0l0 0zm-4163 -6937c0,85 0,170 0,255 0,0 0,0 0,0 37,950 110,1899 220,2776 -110,473 -293,985 -511,1350 -255,328 -584,548 -1059,511 -438,0 -694,-183 -803,-401 -73,-110 -110,-256 -110,-402 0,-145 37,-292 73,-438 221,-440 958,-895 1205,-402 37,73 37,183 37,292 -37,146 -110,328 -220,511 -108,0 -218,0 -291,-73 -74,-35 -147,-145 -182,-255 0,328 255,511 510,475 768,-73 913,-1680 1096,-3761 12,-146 24,-292 37,-438 0,0 -2,0 -2,0l0 0zm402 3906c110,621 256,1206 475,1716 -37,585 -182,1060 -365,1498 -182,402 -438,730 -767,1022 -365,133 -730,268 -1095,401 -366,-73 -694,-182 -949,-401 -255,-219 -438,-547 -475,-1022 -37,-548 110,-876 328,-1096 220,-219 548,-328 877,-365 146,-37 293,0 438,73 220,73 402,255 548,438 145,220 255,439 292,657 36,183 0,330 -72,512 -220,328 -585,548 -1096,584 -587,83 -678,-643 -622,-1023 120,-793 1284,-261 695,330 854,-595 -652,-1461 -877,-366 -110,534 122,1263 840,1206 1716,-183 1753,-2046 1788,-3798 0,-110 0,-220 37,-366l0 0zm585 2046c109,255 218,510 328,730 -97,328 -195,657 -292,985 -304,110 -608,220 -913,328 220,-255 402,-510 548,-838 147,-330 256,-732 329,-1205 0,0 0,0 0,0l0 0zm438 912c73,183 183,366 292,511 -170,73 -341,147 -512,220 75,-245 147,-488 220,-731z"/>
    <path class="fil2" d="M19759 978c-3742,-1444 -7715,-1234 -11114,271 -3399,1506 -6222,4309 -7667,8051 -1444,3743 -1234,7717 271,11115 1506,3399 4309,6222 8051,7666 3743,1446 7717,1236 11115,-270 3399,-1506 6222,-4309 7666,-8052 1446,-3742 1236,-7715 -270,-11114 -1506,-3399 -4309,-6222 -8052,-7667l0 0zm-10739 1116c3181,-1412 6903,-1608 10407,-254 3506,1352 6130,3997 7540,7180 1411,3181 1607,6903 254,10407 -1352,3506 -3997,6130 -7181,7540 -3181,1411 -6902,1607 -10407,254 -3505,-1352 -6130,-3997 -7539,-7181 -1411,-3183 -1608,-6902 -254,-10407 1352,-3505 3997,-6130 7180,-7539z"/>
   </g>
  </g>
 </g>
</svg>
